<svg xmlns="http://www.w3.org/2000/svg" width="11" height="216">
    <path fill="#14123B" fill-rule="evenodd" d="M10.371 213.422l-2.773-.718v1.189l2.911.744c.322.087.485.285.485.619 0 .385-.237.57-.623.47l-2.773-.718v.434c0 .359-.187.558-.536.558-.348 0-.534-.199-.534-.558v-.706l-1.132-.285v.991c0 .359-.187.558-.536.558-.347 0-.534-.199-.534-.558v-1.276l-2.923-.756c-.323-.087-.486-.297-.486-.619 0-.423.204-.578.622-.471l2.787.719v-1.178l-2.923-.756c-.323-.086-.486-.296-.486-.619 0-.385.237-.57.622-.47l2.787.718v-.446c0-.359.187-.558.534-.558.349 0 .536.199.536.558v.731l1.132.285v-1.016c0-.359.186-.558.534-.558.349 0 .536.199.536.558v1.301l2.911.743c.322.087.485.285.485.619 0 .385-.237.57-.623.471zm-3.843-.99l-1.132-.286v1.177l1.132.285v-1.176zm-4.379-9.512c-.361 0-.56-.197-.56-.558v-2.008c0-1.709 1.095-2.985 3.085-2.985h.336c1.991 0 3.035 1.276 3.035 2.985v1.352H9.8c.361 0 .559.197.559.557v.099c0 .361-.198.558-.559.558H2.149zm4.727-2.503c0-1.041-.56-1.846-1.878-1.846h-.324c-1.518 0-1.903.892-1.903 1.846v1.289h4.105v-1.289zm2.849-8.149l-7.676-2.478c-.311-.099-.46-.31-.46-.632v-.396c0-.322.138-.533.46-.632l7.676-2.442c.398-.123.634.076.634.472v.124c0 .322-.149.52-.473.619l-1.505.459v3.246l1.518.458c.323.099.46.31.46.632v.111c0 .397-.236.583-.634.459zm-2.401-4.609l-4.503 1.301 4.503 1.338v-2.639zm-5.175-8.185c-.361 0-.56-.198-.56-.557v-2.082c0-1.773 1.095-2.913 3.06-2.913h.249c1.42 0 2.313.715 2.65 1.804l2.126-1.432c.375-.247.685-.136.685.248v.272c0 .297-.124.508-.373.669l-2.152 1.384v1.393H9.8c.361 0 .559.198.559.557v.1c0 .359-.198.557-.559.557H2.149zm4.515-2.502c0-1.042-.521-1.848-1.778-1.848h-.298c-1.369 0-1.817.794-1.817 1.848v1.288h3.893v-1.288zm.647-9.179H4.625c-1.792 0-3.036-1.19-3.036-2.911 0-1.611 1.095-2.689 2.65-2.85.373-.037.584.124.584.495v.113c0 .346-.186.532-.522.594-.846.162-1.53.644-1.53 1.648 0 .854.548 1.698 1.817 1.698h2.761c1.207 0 1.828-.744 1.828-1.698 0-1.078-.771-1.562-1.592-1.673-.348-.049-.534-.223-.534-.569v-.113c0-.358.211-.532.584-.495 1.604.161 2.724 1.202 2.724 2.85 0 1.721-1.256 2.911-3.048 2.911zm.013-11.988H4.637c-1.792 0-3.048-1.19-3.048-2.911 0-1.71 1.256-2.925 3.048-2.925h2.687c1.792 0 3.035 1.215 3.035 2.925 0 1.721-1.243 2.911-3.035 2.911zm.05-4.61H4.588c-1.207 0-1.83.744-1.83 1.699 0 .854.547 1.697 1.817 1.697h2.786c1.207 0 1.829-.743 1.829-1.697 0-.856-.547-1.699-1.816-1.699zm-.05-7.666H2.149c-.361 0-.56-.198-.56-.557v-.099c0-.359.199-.558.56-.558h5.212c1.282 0 1.829-.83 1.829-1.697 0-.941-.622-1.71-1.829-1.71H2.149c-.361 0-.56-.198-.56-.557v-.1c0-.359.199-.557.56-.557h5.175c1.792 0 3.035 1.214 3.035 2.924s-1.243 2.911-3.035 2.911zm-5.175-12.521c-.361 0-.56-.198-.56-.558v-2.081c0-1.771 1.095-2.912 3.06-2.912h.249c1.42 0 2.313.715 2.65 1.804l2.126-1.432c.375-.248.685-.137.685.248v.273c0 .297-.124.507-.373.669l-2.152 1.382v1.393H9.8c.361 0 .559.198.559.558v.098c0 .36-.198.558-.559.558H2.149zm4.515-2.502c0-1.041-.521-1.847-1.778-1.847h-.298c-1.369 0-1.817.793-1.817 1.847v1.288h3.893v-1.288zm1.22-9.092c-.374.05-.584-.174-.584-.533v-.062c0-.346.186-.52.547-.594.895-.186 1.355-.831 1.355-1.71 0-.966-.46-1.685-1.381-1.685-.948 0-1.146.895-1.369 1.881-.276 1.214-.59 2.566-2.388 2.566-1.578 0-2.475-1.015-2.475-2.75 0-1.561.858-2.627 2.389-2.825.372-.05.584.174.584.545v.037c0 .348-.186.521-.535.608-.808.198-1.306.768-1.306 1.635 0 .979.472 1.549 1.343 1.549.975 0 1.173-.903 1.39-1.896.267-1.215.563-2.565 2.343-2.565 1.642 0 2.562 1.115 2.562 2.9 0 1.598-.883 2.688-2.475 2.899zm-5.735-12.299c-.361 0-.56-.198-.56-.556v-2.082c0-1.772 1.095-2.913 3.06-2.913h.249c1.42 0 2.313.715 2.65 1.804l2.126-1.431c.375-.249.685-.136.685.248v.272c0 .297-.124.508-.373.669l-2.152 1.383v1.392H9.8c.361 0 .559.199.559.558v.1c0 .358-.198.556-.559.556H2.149zm4.515-2.502c0-1.041-.521-1.846-1.778-1.846h-.298c-1.369 0-1.817.793-1.817 1.846v1.288h3.893v-1.288zm-4.515-9.426c-.361 0-.56-.198-.56-.557v-3.742c0-.359.199-.557.56-.557h.062c.361 0 .56.198.56.557v3.085h2.637v-2.094c0-.359.187-.557.535-.557.349 0 .547.198.547.557v2.094h2.687v-3.085c0-.359.199-.557.56-.557H9.8c.361 0 .559.198.559.557v3.742c0 .359-.198.557-.559.557H2.149zm.075-10.688c-.386.111-.635-.05-.635-.446v-.161c0-.323.162-.533.473-.62l6.643-1.871-6.643-1.883c-.322-.091-.473-.297-.473-.62v-.136c0-.397.249-.57.635-.458l7.675 2.342c.323.098.46.296.46.619v.285c0 .322-.137.52-.46.619l-7.675 2.33zm5.1-12.002H4.637c-1.792 0-3.048-1.19-3.048-2.912 0-1.709 1.256-2.924 3.048-2.924h2.687c1.792 0 3.035 1.215 3.035 2.924 0 1.722-1.243 2.912-3.035 2.912zm.05-4.61H4.588c-1.207 0-1.83.744-1.83 1.698 0 .855.547 1.698 1.817 1.698h2.786c1.207 0 1.829-.743 1.829-1.698 0-.855-.547-1.698-1.816-1.698zm-5.225-7.789c-.361 0-.56-.199-.56-.557v-.1c0-.359.199-.557.56-.557h7.028v-2.8c0-.359.199-.558.56-.558H9.8c.361 0 .559.199.559.558v3.457c0 .358-.198.557-.559.557H2.149zm5.175-10.392H2.149c-.361 0-.56-.198-.56-.558v-.098c0-.36.199-.558.56-.558h5.212c1.282 0 1.829-.83 1.829-1.698 0-.941-.622-1.71-1.829-1.71H2.149c-.361 0-.56-.198-.56-.557v-.1c0-.359.199-.556.56-.556h5.175c1.792 0 3.035 1.213 3.035 2.923 0 1.711-1.243 2.912-3.035 2.912zm-4.553-14.07v1.548c0 .359-.199.558-.56.558h-.062c-.361 0-.56-.199-.56-.558V32.86c0-.359.199-.557.56-.557h.062c.361 0 .56.198.56.557v1.561H9.8c.361 0 .559.199.559.558v.1c0 .358-.198.557-.559.557H2.771zm-.622-9.587c-.361 0-.56-.198-.56-.558v-.098c0-.36.199-.558.56-.558H9.8c.361 0 .559.198.559.558v.098c0 .36-.198.558-.559.558H2.149zm5.175-7.778H4.637c-1.792 0-3.048-1.189-3.048-2.911 0-1.71 1.256-2.925 3.048-2.925h2.687c1.792 0 3.035 1.215 3.035 2.925 0 1.722-1.243 2.911-3.035 2.911zm.05-4.609H4.588c-1.207 0-1.83.744-1.83 1.698 0 .854.547 1.697 1.817 1.697h2.786c1.207 0 1.829-.743 1.829-1.697 0-.856-.547-1.698-1.816-1.698zm-5.225-7.79c-.361 0-.56-.198-.56-.558v-.123c0-.31.124-.52.386-.67l5.934-3.294h-5.76c-.361 0-.56-.199-.56-.558V.557c0-.359.199-.557.56-.557H9.8c.361 0 .559.198.559.557v.136c0 .31-.124.521-.386.669L4.064 4.658H9.8c.361 0 .559.198.559.558v.098c0 .36-.198.558-.559.558H2.149z"/>
</svg>
