<svg xmlns="http://www.w3.org/2000/svg" width="25" height="37">
    <path fill="#DC3115" fill-rule="evenodd" d="M23.418 27.348c-.649.027-2.607.146-4.389.664-1.431.415-3.412 1.278-4.496 2.045-1.082.766-3.247 2.443-4.738 5.113-.416.742-.72 1.229-1.183 1.542-.503.339-1.335.341-1.903.02-.972-.55-.87-2.051-.857-2.692.012-.567-.044-2.682-.123-7.246-.063-3.612-.982-5.266-2.017-7.122C2.597 17.673 0 15.535 0 15.535s.028-.246.513-1.365 1.222-2.615 2.515-3.994c1.293-1.38 2.974-2.322 2.974-2.322L2.633 4.826c-.575-.519-1.396-2.059-.565-3.433C3.138-.377 5.204.038 5.204.038s2.295.313 5.337.884c2.261.424 3.423.847 5.36 1.743 1.336.619 3.042 1.821 3.659 2.443.613.619 1.948 2.178 2.207 2.56 2.003 2.953 3.061 6.643 3.061 9.272 0 1.291.186 8.358.183 8.519-.034 2.157-.902 1.86-1.593 1.889zm-4.347-13.726c-.675-2.906-3.629-4.727-6.599-4.067-2.97.659-4.831 3.55-4.157 6.455.675 2.905 3.628 4.726 6.598 4.067 2.97-.66 4.831-3.55 4.158-6.455zm-4.696 4.134c-1.66.369-3.311-.649-3.687-2.273-.377-1.624.663-3.239 2.323-3.608 1.66-.368 3.31.65 3.687 2.273.377 1.624-.663 3.239-2.323 3.608z"/>
    <path fill="#002542" fill-rule="evenodd" d="M21.221 12.127l-.15-.136c-.563-.505-1.15-1.522-1.305-2.261l-.042-.199c-.155-.739-.897-1.408-1.649-1.486l-.203-.021c-.752-.078-1.826-.557-2.387-1.064l-.151-.136c-.56-.507-1.555-.613-2.209-.235l-.176.102c-.655.378-1.806.621-2.558.54l-.202-.022c-.752-.081-1.619.417-1.926 1.107l-.082.185c-.307.69-1.096 1.562-1.752 1.938l-.176.101c-.657.376-1.064 1.287-.906 2.026l.042.198c.158.738.034 1.906-.276 2.595l-.083.185c-.31.689-.103 1.665.459 2.171l.152.135c.562.505 1.15 1.523 1.304 2.261l.042.199c.155.739.897 1.408 1.65 1.486l.202.021c.752.079 1.826.557 2.387 1.064l.151.136c.56.507 1.555.613 2.21.235l.176-.102c.654-.378 1.805-.621 2.557-.539l.202.021c.752.081 1.619-.417 1.926-1.107l.082-.185c.308-.69 1.096-1.562 1.752-1.938l.176-.1c.657-.376 1.064-1.288.907-2.026l-.043-.198c-.158-.739-.034-1.907.276-2.596l.083-.185c.31-.688.103-1.665-.46-2.17zm-6.531 8.051c-2.926.663-5.835-1.167-6.5-4.087-.664-2.92 1.17-5.825 4.095-6.488 2.925-.662 5.835 1.168 6.499 4.087.664 2.921-1.169 5.825-4.094 6.488z"/>
</svg>
