<svg xmlns="http://www.w3.org/2000/svg" width="38" height="63">
    <path fill="#E33D26" fill-rule="evenodd" d="M18.996.012C8.512.012-.015 8.345-.015 18.589c0 1.382.18 2.718.474 4.016.245 1.074.566 2.118.992 3.115l.122.262 17.423 37.016L36.42 25.982c.04-.09.086-.173.124-.262.423-.997.745-2.041.99-3.115.295-1.298.474-2.634.474-4.016C38.008 8.345 29.481.012 18.996.012z"/>
    <path fill="#FFF" fill-rule="evenodd" d="M18.999 8.999c5.522 0 10 4.478 10 10 0 5.523-4.478 10-10 10-5.523 0-10.001-4.477-10.001-10 0-5.522 4.478-10 10.001-10z"/>
    <path fill="#2E3192" fill-rule="evenodd" d="M18.999 12.999c3.314 0 6 2.687 6 6 0 3.314-2.686 6.001-6 6.001s-6-2.687-6-6.001c0-3.313 2.686-6 6-6z"/>
</svg>
