<svg xmlns="http://www.w3.org/2000/svg" width="32" height="28">
    <path fill="#DC3115" fill-rule="evenodd" d="M16.999 26.999c0 .27.49.795.738.897.249.103.535.046.726-.143l13.341-13.288c.124-.125.195-.296.195-.473s-.07-.346-.195-.471L18.464.194c-.128-.128-.298-.195-.471-.195-.086 0-.173.016-.256.05-.248.103-.738.681-.738.95v26z"/>
    <path fill="#DC3115" fill-rule="evenodd" d="M4.999 3.999h13c.553 0 1.001.448 1.001 1V23c0 .552-.448.999-1.001.999H7l-2.001-20z"/>
    <path fill="#002542" fill-rule="evenodd" d="M.999 3.999H3l1.999 20h-4c-.552 0-1-.447-1-.999V4.999c0-.552.448-1 1-1z"/>
</svg>
