<svg xmlns="http://www.w3.org/2000/svg" width="131" height="35">
    <path fill="#FFF" fill-rule="evenodd" d="M122.009 10.873c-1.31 0-2.281.603-2.281 1.612 0 1.355 1.324 1.92 4.631 2.899 4.254 1.258 6.041 3.068 6.041 6.347 0 4.147-3.357 6.538-7.906 6.538-5.791 0-8.196-4.376-8.512-5.261l4.139-2.171c.923 1.641 2.456 2.692 4.373 2.692 1.72 0 3.041-.477 3.041-1.737 0-1.81-2.924-2.179-4.408-2.707-1.484-.528-6.263-1.451-6.263-6.478 0-4.188 3.545-6.478 7.145-6.478 5.121 0 7.11 3.472 7.782 4.805l-4.059 2.138c-.734-1.06-1.602-2.199-3.723-2.199zm-17.217-4.318h4.864v21.289h-4.864V6.555zm-9.767 21.289l-3.834-6.682H88.7v6.682h-4.864V6.555h8.513c4.044 0 7.297 3.254 7.297 7.299 0 2.615-1.511 5.173-3.861 6.279l4.469 7.711h-5.229zm-2.676-16.728H88.7v5.788h3.649c1.337 0 2.432-1.254 2.432-2.894 0-1.64-1.095-2.894-2.432-2.894zM74.303 24.102c-1.222.314-2.503.479-3.823.479-1.32 0-2.601-.165-3.823-.479l-1.195 3.742h-5.32l7.236-21.289h6.203l7.234 21.289h-5.319l-1.193-3.742zM70.48 12.121l-2.516 7.886c.804.207 1.647.315 2.516.315s1.712-.108 2.516-.315l-2.516-7.886zm-17.699 9.032h-3.192v6.691h-4.865V6.555h8.057c4.196 0 7.45 3.254 7.45 7.299s-3.254 7.299-7.45 7.299zm0-10.036h-3.192v5.474h3.192c1.49 0 2.585-1.186 2.585-2.737 0-1.551-1.095-2.737-2.585-2.737zM19.185 34.4C8.458 34.4 1.055 26.818.001 17.569c-.022-.199.164-.358.357-.309l12.121 2.644c.03.08 2.009 5.886 7.69 5.886 5.722 0 9.437-5.847 9.437-12.282 0-6.43-4.011-9.135-5.236-10.084-.001-.001-10.194 5.1-10.194 5.1 5.507 3.373 6.502 9.363 5.118 13.478-.39 1.16-.796 1.264-.724.645.48-4.141-1.244-11.442-11.403-13.796-.178-.041-.204-.285-.037-.362l18.339-8.49c4.093 3 6.912 6.825 6.912 13.509 0 7.43-5.012 14.613-12.212 14.613-6.805 0-9.383-5.927-9.417-6.001l-6.738-1.259c.082.295 3.193 11.16 16.394 11.062 6.63-.049 12.889-3.614 16.284-11.052.153-.333.26-.459.39-.457.189.003.215.578-.378 2.172C34.13 29.504 28.087 34.4 19.185 34.4z"/>
</svg>
