<svg xmlns="http://www.w3.org/2000/svg" width="126" height="42">
    <path fill="#FFF" fill-rule="evenodd" d="M123.872 31.019c-.704.031-2.825.166-4.755.751-1.549.47-3.696 1.447-4.87 2.314-1.173.867-3.518 2.764-5.134 5.785-.45.84-.779 1.391-1.281 1.745-.545.384-1.446.386-2.062.023-1.053-.622-.942-2.321-.928-3.046.013-.641-.048-3.034-.133-8.199-.068-4.086-1.064-5.958-2.185-8.058-1.208-2.261-4.022-4.68-4.022-4.68s.031-.278.556-1.545c.525-1.266 1.324-2.959 2.725-4.519 1.4-1.56 3.221-2.627 3.221-2.627s-3.026-2.838-3.649-3.426c-.623-.588-1.512-2.33-.612-3.884C101.902-.35 104.139.12 104.139.12s2.487.354 5.783 1c2.449.48 3.708.959 5.806 1.972 1.448.699 3.296 2.06 3.965 2.764.663.7 2.109 2.464 2.39 2.896 2.17 3.341 3.317 7.517 3.317 10.491 0 1.461.201 9.457.198 9.639-.038 2.441-.978 2.105-1.726 2.137zm-2.03-17.291l-.166-.152c-.618-.569-1.265-1.714-1.435-2.546l-.045-.224c-.171-.832-.987-1.584-1.815-1.673l-.222-.023c-.828-.089-2.009-.628-2.626-1.198l-.165-.154c-.617-.57-1.711-.689-2.431-.263l-.193.114c-.721.425-1.987.699-2.814.607l-.222-.024c-.827-.091-1.78.469-2.118 1.246l-.09.209c-.338.777-1.205 1.758-1.927 2.181l-.194.114c-.721.422-1.169 1.449-.996 2.28l.047.223c.173.831.036 2.146-.304 2.922l-.092.208c-.34.776-.113 1.875.506 2.444l.166.152c.619.568 1.265 1.714 1.435 2.546l.046.223c.17.832.987 1.585 1.814 1.674l.222.023c.828.088 2.01.628 2.626 1.198l.166.153c.616.571 1.71.69 2.43.264l.193-.114c.72-.426 1.986-.699 2.814-.608l.221.025c.828.091 1.781-.47 2.119-1.246l.09-.209c.338-.777 1.205-1.759 1.927-2.182l.194-.113c.721-.423 1.17-1.449.996-2.28l-.046-.223c-.174-.832-.038-2.146.303-2.922l.092-.208c.34-.776.113-1.875-.506-2.444zm-7.183 9.064c-3.218.746-6.418-1.314-7.149-4.601-.73-3.288 1.286-6.557 4.503-7.304 3.218-.746 6.418 1.314 7.149 4.601.73 3.288-1.286 6.558-4.503 7.304zm1.933-6.708c-.409-1.837-2.197-2.988-3.995-2.571-1.798.417-2.925 2.244-2.516 4.082.407 1.837 2.196 2.988 3.994 2.571 1.799-.417 2.925-2.244 2.517-4.082zM96.49 39.457h-.194c-.444 0-.745-.18-.957-.557l-4.714-8.53v8.279c0 .521-.284.808-.798.808h-.142c-.514 0-.797-.287-.797-.808V27.605c0-.521.283-.808.797-.808h.178c.442 0 .744.179.957.556l4.713 8.566v-8.314c0-.521.284-.808.798-.808h.159c.514 0 .798.287.798.808v11.044c0 .521-.284.808-.798.808zm-14.086-.001c-2.463 0-4.164-1.795-4.164-4.381v-3.879c0-2.586 1.701-4.399 4.164-4.399 2.445 0 4.182 1.813 4.182 4.399v3.879c0 2.586-1.737 4.381-4.182 4.381zm2.428-8.331c0-1.743-1.064-2.64-2.428-2.64-1.223 0-2.428.789-2.428 2.622v4.021c0 1.743 1.063 2.64 2.428 2.64 1.223 0 2.428-.79 2.428-2.621v-4.022zm-9.694 8.332h-.141c-.514 0-.797-.287-.797-.808V27.605c0-.521.283-.808.797-.808h.141c.515 0 .798.287.798.808v11.044c0 .521-.283.808-.798.808zm-3.595-10.955H69.31v10.147c0 .521-.284.808-.797.808h-.142c-.514 0-.798-.287-.798-.808V28.502h-2.215c-.514 0-.797-.287-.797-.808v-.089c0-.521.283-.808.797-.808h6.185c.514 0 .797.287.797.808v.089c0 .521-.283.808-.797.808zm-2.915-11.137c1.733.384 3.66.811 3.66 3.374 0 2.366-1.592 3.692-4.139 3.692-2.281 0-3.837-1.273-4.138-3.566-.071-.538.248-.843.761-.843h.088c.495 0 .743.269.849.788.265 1.291 1.185 1.954 2.44 1.954 1.38 0 2.406-.663 2.406-1.989 0-1.367-1.277-1.652-2.686-1.974-1.732-.396-3.663-.849-3.663-3.439 0-2.276 1.45-3.567 3.926-3.567 2.228 0 3.749 1.237 4.033 3.442.07.537-.248.842-.779.842h-.053c-.495 0-.743-.269-.867-.771-.282-1.165-1.096-1.882-2.334-1.882-1.397 0-2.211.681-2.211 1.936 0 1.403 1.289 1.689 2.707 2.003zm-9.932 22.092c-2.445 0-4.164-1.796-4.164-4.382v-7.47c0-.521.284-.808.797-.808h.142c.514 0 .798.287.798.808v7.523c0 1.85 1.187 2.64 2.427 2.64 1.347 0 2.445-.897 2.445-2.64v-7.523c0-.521.285-.808.798-.808h.142c.514 0 .797.287.797.808v7.47c0 2.586-1.737 4.382-4.182 4.382zm3.229-16.012c.354.538.194.986-.354.986h-.389c-.424 0-.725-.179-.955-.538l-1.974-3.1h-1.988v2.831c0 .52-.283.807-.795.807h-.142c-.513 0-.796-.287-.796-.807V12.602c0-.52.283-.807.796-.807h2.971c2.53 0 4.157 1.578 4.157 4.409v.359c0 2.046-1.02 3.332-2.575 3.818l2.044 3.064zm-1.185-6.9v-.43c0-1.972-1.132-2.617-2.635-2.617h-1.84v5.61h1.84c1.485 0 2.635-.753 2.635-2.563zm-8.245 22.912h-4.944c-.515 0-.797-.287-.797-.808V27.605c0-.521.282-.808.797-.808h.141c.514 0 .798.287.798.808V37.75h4.005c.514 0 .797.288.797.809v.09c0 .521-.283.808-.797.808zm-4.16-15.026c-2.441 0-4.156-1.792-4.156-4.373v-7.456c0-.52.283-.806.796-.806h.141c.513 0 .796.286.796.806v7.51c0 1.846 1.185 2.634 2.423 2.634 1.344 0 2.441-.896 2.441-2.634v-7.51c0-.52.283-.806.796-.806h.141c.513 0 .796.286.796.806v7.456c0 2.581-1.733 4.373-4.174 4.373zm-10.206 0c-2.458 0-4.156-1.792-4.156-4.373v-3.872c0-2.58 1.698-4.39 4.156-4.39 2.441 0 4.174 1.81 4.174 4.39v3.872c0 2.581-1.733 4.373-4.174 4.373zm2.424-8.316c0-1.739-1.062-2.635-2.424-2.635-1.22 0-2.423.789-2.423 2.617v4.015c0 1.738 1.061 2.634 2.423 2.634 1.221 0 2.424-.788 2.424-2.617v-4.014zm-6.326 10.682c.567 0 .815.359.656.916l-3.35 11.079c-.142.467-.425.665-.885.665h-.408c-.461 0-.745-.198-.886-.665l-3.332-11.079c-.159-.557.071-.916.638-.916h.231c.46 0 .761.233.886.682l2.676 9.589 2.693-9.589c.13-.465.425-.682.886-.682h.195zm-6.205-4.069c1.539 0 2.229-1.111 2.388-2.294.071-.502.318-.771.814-.771h.158c.513 0 .761.305.708.843-.23 2.312-1.716 3.925-4.068 3.925-2.458 0-4.156-1.81-4.156-4.391v-3.871c0-2.581 1.698-4.373 4.156-4.373 2.299 0 3.838 1.576 4.068 3.817.053.538-.177.842-.708.842h-.158c-.496 0-.762-.269-.85-.752-.23-1.219-.919-2.205-2.352-2.205-1.22 0-2.423.789-2.423 2.617v3.979c0 1.738 1.061 2.634 2.423 2.634zm-3.786 3.185c0 .521-.284.808-.797.808h-5.6v3.596h5.078c.514 0 .798.27.798.773s-.284.79-.798.79h-5.078v5.87h6.496c.514 0 .798.288.798.809v.09c0 .521-.284.807-.798.807H16.9c-.514 0-.798-.286-.798-.807V25.823c0-.52.284-.808.798-.808h6.539c.513 0 .797.287.797.808v.09zm-3.061-4.748h.017c.762 0 .958.342.532.969l-.886 1.312c-.248.359-.372.539-.797.539h-.124c-.39 0-.567-.234-.302-.808l.639-1.401c.194-.413.478-.611.921-.611zm.58-2.603c.355.538.195.987-.354.987h-.39c-.425 0-.726-.18-.956-.539l-1.978-3.107h-1.992v2.838c0 .521-.283.808-.797.808h-.142c-.514 0-.797-.287-.797-.808V7.697c0-.521.283-.808.797-.808h2.977c2.534 0 4.164 1.58 4.164 4.417v.36c0 2.05-1.021 3.339-2.579 3.824l2.047 3.072zm-1.186-6.915v-.43c0-1.976-1.135-2.622-2.641-2.622h-1.843v5.621h1.843c1.489 0 2.641-.754 2.641-2.569zm-7.357 26.809c.355.538.195.987-.354.987h-.39c-.425 0-.726-.18-.957-.539l-1.978-3.107-7.797-.013v2.838c0 .521-.283.808-.797.808H.797c-.514 0-.797-.287-.797-.808V27.578c0-.521.283-.808.797-.808l8.783.013c2.534 0 4.164 1.58 4.164 4.417v.36c0 2.05-1.022 3.339-2.579 3.824l2.047 3.072zm-1.187-6.914v-.431c0-1.975-1.134-2.622-2.64-2.622l-7.649-.013v5.621l7.649.013c1.488 0 2.64-.754 2.64-2.568zm.993-7.099h-.176c-.461 0-.745-.216-.887-.682l-.656-2.173H6.657l-.655 2.191c-.143.466-.444.664-.905.664h-.159c-.567 0-.833-.341-.656-.916l3.544-11.079c.142-.449.444-.665.904-.665h.568c.46 0 .761.198.903.665l3.491 11.079c.177.575-.107.916-.674.916zM9.013 13.561l-1.914 6.501h3.775l-1.861-6.501zm-5.354-1.703H1.727v11.777c0 .521-.282.808-.797.808H.788c-.514 0-.797-.287-.797-.808V3.346c0-.52.283-.808.797-.808h2.871c2.446 0 4.271 1.581 4.271 4.454v.485c0 2.873-1.825 4.381-4.271 4.381zm2.552-4.866c0-2.191-1.276-2.748-2.641-2.748H1.727v5.926H3.57c1.489 0 2.641-.808 2.641-2.711v-.467zm34.058 19.805c2.445 0 4.182 1.813 4.182 4.399v3.879c0 2.586-1.737 4.381-4.182 4.381-2.464 0-4.164-1.795-4.164-4.381v-3.879c0-2.586 1.7-4.399 4.164-4.399zm-2.428 8.331c0 1.743 1.063 2.64 2.428 2.64 1.222 0 2.427-.79 2.427-2.621v-4.022c0-1.743-1.063-2.64-2.427-2.64-1.223 0-2.428.789-2.428 2.622v4.021z"/>
</svg>
